<?xml version="1.0" encoding="UTF-8" standalone="no"?>
<svg
   xmlns:dc="http://purl.org/dc/elements/1.1/"
   xmlns:cc="http://creativecommons.org/ns#"
   xmlns:rdf="http://www.w3.org/1999/02/22-rdf-syntax-ns#"
   xmlns:svg="http://www.w3.org/2000/svg"
   xmlns="http://www.w3.org/2000/svg"
   xmlns:sodipodi="http://sodipodi.sourceforge.net/DTD/sodipodi-0.dtd"
   xmlns:inkscape="http://www.inkscape.org/namespaces/inkscape"
   width="16"
   height="16"
   fill="currentColor"
   class="bi bi-tags-fill"
   viewBox="0 0 16 16"
   version="1.1"
   id="svg6"
   sodipodi:docname="icon.svg"
   inkscape:version="0.92.4 (5da689c313, 2019-01-14)">
  <metadata
     id="metadata12">
    <rdf:RDF>
      <cc:Work
         rdf:about="">
        <dc:format>image/svg+xml</dc:format>
        <dc:type
           rdf:resource="http://purl.org/dc/dcmitype/StillImage" />
      </cc:Work>
    </rdf:RDF>
  </metadata>
  <defs
     id="defs10" />
  <sodipodi:namedview
     pagecolor="#ffffff"
     bordercolor="#666666"
     borderopacity="1"
     objecttolerance="10"
     gridtolerance="10"
     guidetolerance="10"
     inkscape:pageopacity="0"
     inkscape:pageshadow="2"
     inkscape:window-width="1920"
     inkscape:window-height="1051"
     id="namedview8"
     showgrid="false"
     inkscape:zoom="29.5"
     inkscape:cx="2.8183267"
     inkscape:cy="4.2304742"
     inkscape:window-x="-9"
     inkscape:window-y="-9"
     inkscape:window-maximized="1"
     inkscape:current-layer="svg6" />
  <path
     d="m 2.2372881,1.6949153 a 1,1 0 0 1 1,-1.00000009 h 4.586 a 1,1 0 0 1 0.707,0.29300008 L 15.530286,7.9879153 a 1,1 0 0 1 0,1.414 l -4.586,4.5860027 a 1,1 0 0 1 -1.4139979,0 l -7,-7.0000027 a 1,1 0 0 1 -0.293,-0.707 z m 3.5,4 a 1.5,1.5 0 1 0 0,-3 1.5,1.5 0 0 0 0,3 z"
     id="path2"
     inkscape:connector-curvature="0"
     style="fill:#555f9f;fill-opacity:1" />
  <path
     d="m 1.5302881,7.4879153 a 1,1 0 0 1 -0.293,-0.707 v -5.086 a 1,1 0 0 0 -0.99999993,1 v 4.586 a 1,1 0 0 0 0.293,0.707 L 7.5302881,14.987918 a 1,1 0 0 0 1.414,0 l 0.043,-0.043 z"
     id="path4"
     inkscape:connector-curvature="0"
     style="fill:#555f9f;fill-opacity:1" />
</svg>
